<svg xmlns="http://www.w3.org/2000/svg" width="50" height="50" viewBox="0 0 50 50"><path fill="#e5e5e5" d="M25 5L25 15L20 15ZM35 15L25 15L25 10ZM25 45L25 35L30 35ZM15 35L25 35L25 40ZM15 15L15 25L10 25ZM45 25L35 25L35 20ZM35 35L35 25L40 25ZM5 25L15 25L15 30Z"/><path fill="#afcc66" d="M10 5L15 10L10 15L5 10ZM45 10L40 15L35 10L40 5ZM40 45L35 40L40 35L45 40ZM5 40L10 35L15 40L10 45Z"/><path fill="#4c4c4c" d="M17 17L24 17L24 24L17 24ZM33 17L33 24L26 24L26 17ZM33 33L26 33L26 26L33 26ZM17 33L17 26L24 26L24 33Z"/></svg>